<svg xmlns="http://www.w3.org/2000/svg" viewBox="0 0 256 256" role="img" aria-labelledby="title">
<title id="title">Knogn</title>
<defs>
  <linearGradient id="ring" x1="0" y1="0" x2="1" y2="1"><stop stop-color="#E8F8EC"/><stop offset=".48" stop-color="#9BCBAA"/><stop offset="1" stop-color="#397A5D"/></linearGradient>
  <linearGradient id="leafTop" x1="0" y1="0" x2="1" y2="1"><stop stop-color="#EFFAF1"/><stop offset=".55" stop-color="#A2CEB0"/><stop offset="1" stop-color="#4C8B69"/></linearGradient>
  <linearGradient id="leafBottom" x1="0" y1="0" x2="1" y2="1"><stop stop-color="#D1ECD8"/><stop offset=".55" stop-color="#7EB493"/><stop offset="1" stop-color="#2F6B50"/></linearGradient>
</defs>
<circle cx="128" cy="128" r="105" fill="none" stroke="url(#ring)" stroke-width="12"/>
<path d="M86 171C73 120 99 78 170 43c19-9 31-18 42-29-8 61-40 102-96 127-17 8-27 18-30 30Z" fill="url(#leafTop)"/>
<path d="M92 177c29-37 68-37 105-7 15 12 27 19 43 18-33 31-72 39-108 17-17-11-29-22-40-28Z" fill="url(#leafBottom)"/>
</svg>
